<?xml version="1.0" encoding="UTF-8"?>
<!DOCTYPE svg PUBLIC "-//W3C//DTD SVG 1.1//EN" "http://www.w3.org/Graphics/SVG/1.1/DTD/svg11.dtd">
<svg xmlns="http://www.w3.org/2000/svg" version="1.1" width="132px" height="126px" style="shape-rendering:geometricPrecision; text-rendering:geometricPrecision; image-rendering:optimizeQuality; fill-rule:evenodd; clip-rule:evenodd" xmlns:xlink="http://www.w3.org/1999/xlink">
<g><path style="opacity:0.949" fill="#020303" d="M 61.5,2.5 C 80.3559,2.51538 91.5226,11.8487 95,30.5C 96.7651,44.4672 92.2651,55.9672 81.5,65C 62.5862,73.9 48.4196,69.0667 39,50.5C 33.4976,34.0104 36.9976,19.8437 49.5,8C 53.284,5.47128 57.284,3.63795 61.5,2.5 Z M 50.5,40.5 C 51.5,40.5 52.5,40.5 53.5,40.5C 56.2559,52.0455 62.9225,55.2121 73.5,50C 75.625,46.9177 77.625,43.7511 79.5,40.5C 80.931,40.9766 82.2643,41.6433 83.5,42.5C 80.7461,51.6014 74.7461,56.6014 65.5,57.5C 56.46,56.4669 50.7933,51.4669 48.5,42.5C 49.2427,41.8182 49.9094,41.1515 50.5,40.5 Z"/></g>
<g><path style="opacity:0.976" fill="#020303" d="M 36.5,71.5 C 39.5184,71.3354 42.5184,71.502 45.5,72C 58.9041,80.5593 72.2374,80.5593 85.5,72C 90.4398,70.9595 95.1065,71.6261 99.5,74C 115.058,85.9496 123.058,101.783 123.5,121.5C 85.1667,121.5 46.8333,121.5 8.5,121.5C 9.00184,99.7152 18.3352,83.0485 36.5,71.5 Z"/></g>
</svg>
