<?xml version="1.0" encoding="UTF-8"?>
<svg id="Calque_1" data-name="Calque 1" xmlns="http://www.w3.org/2000/svg" viewBox="0 0 1189 849">
  <defs>
    <style>
      .cls-1 {
        fill: #fff;
      }

      .cls-2 {
        fill: #f32e63;
      }
    </style>
  </defs>
  <path class="cls-1" d="m345.46,360.05h115.16v62.35h-186.62V108.8h71.46v251.25Z"/>
  <path class="cls-1" d="m699.33,315.44c0-67.36,55.53-111.06,117.44-111.06,40.97,0,72.37,20.03,92.86,50.07l-52.34,32.77c-8.19-12.74-25.49-20.48-40.06-20.48-30.96,0-49.16,22.3-49.16,48.7s18.2,50.07,49.16,50.07c14.56,0,31.86-7.74,40.06-20.49l52.34,32.77c-20.49,30.04-51.89,50.07-92.86,50.07-61.91,0-117.44-45.07-117.44-112.43Z"/>
  <path class="cls-1" d="m759.13,653.27h-73.28l-12.91-76-68.28,115.74h-54.62l-68.28-115.28-15.4,75.55h-73.28l33.16-211.19h59.63l91.49,169.44,90.12-169.44h61l30.67,211.19Z"/>
  <path class="cls-1" d="m998.24,599.29h-155.66c6.37,20.48,24.12,33.22,49.61,33.22,20.03,0,40.51-9.1,53.71-21.85l34.59,43.7c-20.94,22.76-57.35,36.87-92.86,36.87-67.37,0-114.7-46.43-114.7-111.07,0-69.19,53.25-112.43,114.25-112.43s111.97,42.79,111.97,107.42c0,5.92-.45,13.66-.91,24.13Zm-66-39.6c-.91-20.94-19.57-35.05-43.7-35.05-20.03,0-39.6,9.56-46.43,35.05h90.13Z"/>
  <path class="cls-2" d="m576.14,206.16c-60.18,0-108.96,48.78-108.96,108.96s108.96,230.88,108.96,230.88c0,0,108.96-170.7,108.96-230.88s-48.78-108.96-108.96-108.96Zm0,59.23c26.23,0,47.49,21.26,47.49,47.49s-21.26,47.49-47.49,47.49-47.49-21.26-47.49-47.49,21.26-47.49,47.49-47.49Zm47.71,137.78c-12.74,31.85-33.14,38.54-48,38.54-22.02,0-40.03-14.58-48.17-39l-2.69-8.07,16.13-5.38,2.69,8.07c2.74,8.23,11.36,27.38,32.04,27.38,14.18,0,24.71-9.11,32.21-27.84l3.16-7.9,15.79,6.32-3.16,7.9Z"/>
</svg>