<?xml version="1.0" encoding="UTF-8"?>
<svg id="Calque_1" data-name="Calque 1" xmlns="http://www.w3.org/2000/svg" viewBox="0 0 1189 849">
  <defs>
    <style>
      .cls-1 {
        fill: #f32e63;
      }
    </style>
  </defs>
  <path d="m792.06,675.65h-92.88l-16.37-96.32-86.53,146.68h-69.22l-86.53-146.1-19.52,95.75h-92.88l42.02-267.65h75.57l115.95,214.74,114.22-214.74h77.3l38.86,267.65Z"/>
  <path class="cls-1" d="m560.15,109c-76.26,0-138.09,61.82-138.09,138.09s138.09,292.6,138.09,292.6c0,0,138.09-216.34,138.09-292.6s-61.82-138.09-138.09-138.09Zm0,75.06c33.24,0,60.19,26.95,60.19,60.19s-26.95,60.19-60.19,60.19-60.19-26.95-60.19-60.19,26.95-60.19,60.19-60.19Zm60.46,174.62c-16.15,40.37-42,48.84-60.84,48.84-27.91,0-50.73-18.48-61.05-49.43l-3.41-10.22,20.45-6.82,3.41,10.22c3.48,10.43,14.4,34.69,40.6,34.69,17.97,0,31.32-11.54,40.82-35.29l4-10.01,20.01,8.01-4,10.01Z"/>
</svg>